<svg id="visual" viewBox="0 0 900 600" width="900" height="600" xmlns="http://www.w3.org/2000/svg" xmlns:xlink="http://www.w3.org/1999/xlink" version="1.1"><rect x="0" y="0" width="900" height="600" fill="#001220"></rect><defs><linearGradient id="grad1_0" x1="33.3%" y1="0%" x2="100%" y2="100%"><stop offset="20%" stop-color="#001220" stop-opacity="1"></stop><stop offset="80%" stop-color="#001220" stop-opacity="1"></stop></linearGradient></defs><defs><linearGradient id="grad2_0" x1="0%" y1="0%" x2="66.7%" y2="100%"><stop offset="20%" stop-color="#001220" stop-opacity="1"></stop><stop offset="80%" stop-color="#001220" stop-opacity="1"></stop></linearGradient></defs><g transform="translate(900, 0)"><path d="M0 486.7C-61.1 476 -122.2 465.2 -184.1 444.4C-246 423.6 -308.6 392.8 -344.2 344.2C-379.7 295.6 -388.2 229.1 -407.4 168.8C-426.7 108.4 -456.7 54.2 -486.7 0L0 0Z" fill="#FBAE3C"></path></g><g transform="translate(0, 600)"><path d="M0 -486.7C69.5 -486.7 139.1 -486.7 186.3 -449.7C233.5 -412.7 258.3 -338.8 285.7 -285.7C313.1 -232.6 343 -200.3 376.9 -156.1C410.9 -112 448.8 -56 486.7 0L0 0Z" fill="#FBAE3C"></path></g></svg>