<?xml version="1.0" standalone="no"?><svg xmlns="http://www.w3.org/2000/svg" viewBox="0 0 1440 320"><path fill="#273036" fill-opacity="0.4" d="M0,128L30,149.3C60,171,120,213,180,218.7C240,224,300,192,360,160C420,128,480,96,540,112C600,128,660,192,720,224C780,256,840,256,900,218.7C960,181,1020,107,1080,112C1140,117,1200,203,1260,208C1320,213,1380,139,1410,101.3L1440,64L1440,320L1410,320C1380,320,1320,320,1260,320C1200,320,1140,320,1080,320C1020,320,960,320,900,320C840,320,780,320,720,320C660,320,600,320,540,320C480,320,420,320,360,320C300,320,240,320,180,320C120,320,60,320,30,320L0,320Z"></path></svg>